<?xml version="1.0" encoding="UTF-8"?>
<svg width="800px" height="800px" viewBox="0 0 800 800" version="1.1" xmlns="http://www.w3.org/2000/svg">
    <g stroke="none" stroke-width="1" fill="none" fill-rule="evenodd">
        <path d="M700,400 C700,261.928813 588.071187,150 450,150 C311.928813,150 200,261.928813 200,400 C200,538.071187 311.928813,650 450,650 C588.071187,650 700,538.071187 700,400 Z" fill="#1A202C"/>
        <path d="M450,200 C350,200 250,300 250,400 C250,500 350,600 450,600 C550,600 650,500 650,400 C650,300 550,200 450,200 Z M450,550 C375,550 300,475 300,400 C300,325 375,250 450,250 C525,250 600,325 600,400 C600,475 525,550 450,550 Z" fill="#FFFFFF"/>
        <path d="M425,275 L475,275 L475,525 L425,525 L425,275 Z" fill="#FFFFFF"/>
        <path d="M325,375 L575,375 L575,425 L325,425 L325,375 Z" fill="#FFFFFF"/>
    </g>
</svg> 